<?xml version="1.0" encoding="UTF-8"?>
<svg viewBox="0 0 816 1024" fill="none" xmlns="http://www.w3.org/2000/svg" version="1.2" baseProfile="tiny-ps"><title>LenoxFro</title><g><path d="M316.7 524c.5-34.7.6-68.8 1.5-103 .7-24.5.4-48.9.8-73.4.7-47.3 1.2-94.7 2.2-142 .4-18.8.1-37.6.7-56.4.7-26.7.9-53.4.9-80 0-1.4-.5-3 1.5-4.5 2.6 4.8 5.3 9.5 7.8 14.2 25.9 50 51.8 100 77.7 150 6 11.7 12.2 23.4 18 35.1 1.8 3.6 4 5.1 8.1 5.1 61 1.2 122 .3 183 .7 31.1.2 62.3-.1 93.5.4 18.5.3 37 .3 55.4.5 1.6 0 3.4-.5 4.7.9.1 2.1-1.8 2.7-3 3.7-41.6 34.4-83.2 68.7-124.8 103.1-11.2 9.2-22.4 18.4-33.5 27.7-2.6 2.1-5.2 3.1-8.6 3.2-23.8.2-47.7.7-71.5 1-6.7.1-7.6.9-7.8 7.3-.3 10.2-.5 20.3-1 30.5-.2 4.2 1.4 5.6 5.5 5.6 11.6-.1 23.3 0 35 .1 36.4.3 72.9.6 109.4 1 1.8 0 3.7-.5 5.3.9.4 2.2-1.3 3.6-2.3 5.2-21.2 31.8-42.4 63.5-63.4 95.3-2 3-4.3 4.2-7.9 4-24.4-1.4-48.9-.6-73.4-1.1-6.7-.2-7.2.3-7.1 7 1 43.8.4 87.6 1.1 131.4.8 49 .5 98 .9 147 .2 29 .6 58 .8 87 0 1.9.6 3.9-.6 5.7-1.9.2-2.1-1.4-2.6-2.5-26.6-53.4-53.2-106.7-79.7-160.2-9.2-18.3-18.4-36.6-27.2-55.1-2.3-4.8-5.5-6-10.2-6-23.5-.1-47-.2-70.5-.4-39.5-.5-79-1.1-118.5-1.6-3.1-.1-5.8-1.1-8.4-2.7-58-34.1-116-68.3-174-102.5-3-1.8-6.5-3-9.7-6.6 6-1 11.3-.6 16.5-.5 31.6 1 63.3 1.4 94.9 1.9 36.8.6 73.6 1.7 110.5 2.4 20.6.4 41.3.5 61.9.7 6.5 0 7.2-.7 7.3-7.1.3-24.2.5-48.3.8-73zM434.3 605.2c22.5 32.3 48 62 74.3 92.9 0-8.6-.1-15.7.1-22.8 0-2.9-.8-5.3-2.7-7.3-12.3-14.1-24.7-28.3-37.1-42.4-7.6-8.7-15.9-17-22.6-26.5-1.4-1.9-3.7-4.5-1.2-6.5 2.6-2.2 4.9.1 6.7 2.3 1.5 1.7 2.7 3.9 4.5 5.3 11.8 8.9 20.9 20.4 31.3 30.8 6.4 6.3 13.2 12.3 19.9 18.4 1.2-4.4 1.2-8.2 1.2-12 0-28.3.1-56.6.1-84.9 0-4.1.4-7 5.7-5.7 2.8.6 4.9-.9 6.9-3 10.8-11.1 19.8-23.6 31.2-34.2 10.3-9.7 19.4-20.6 29-31 2.5-2.8 6.1-4.6 7.8-9.1-8.4 0-16.3 0-24.2 0-1.5 0-2.3 1.2-3.2 2.2-9.9 9.6-19.8 19.1-29.7 28.7-7.3 7.2-14.8 14.3-21.4 22.2-7.1 8.5-14.5 16.5-23.3 23.3-1.4 1.1-2.7 2.1-4.4 1.1-2.1-1.3-1.3-3.2-.4-4.9.8-1.6 1.8-3.1 3-4.5 9.5-11.4 18.5-23.1 28.9-33.6 8-8 14.8-17.1 22.8-25.1 2.7-2.7 5.8-5.3 7.9-9.6-11 0-21.3-.1-31.6.1-4.1.1-5.9-1.3-5.7-5.5 1.1-21 .4-42 .7-62.9 0-3.5-.2-6.9 4.9-6.7 1.6 0 2.8-1.6 3.9-3 12-15.3 23.8-30.7 36.2-45.8 11-13.5 21.6-27.3 33.9-39.8 5.2-5.3 9.4-11.3 13.7-18.4-5.7 0-10.5 0-15.3 0-1.2 0-2.3.3-3.2 1.2-10.2 10.2-22.1 18.7-31.6 29.8-3.5 4.2-7.4 8-11.4 11.8-10.7 10.2-20.9 21-30 32.7-5.6 7.2-11.4 14.2-17.2 21.3-9.6 11.8-20.5 22.6-29.3 35.1-1.1 1.5-2.7 2.4-4.2 3.4-2.4 1.6-4.8 2.8-7.2.4-2.3-2.5-2.7-5.3-.9-8.3 3.8-6.4 7.3-13.1 11.5-19.2 15.9-22.7 32.2-45.1 49.7-66.7 8-10 16.1-19.9 24.6-29.5 3.1-3.5 7.3-6.6 8.8-11.8-1-.1-1.7-.2-2.3-.2-36.7-.1-73.3-.1-110-.2-4 0-5.1 1.7-5.1 5.4.1 16.7 0 33.3 0 50-.1 80-.2 159.9-.2 239.9 0 7.9-1 16.1 6.2 22.8zM318.7 666.8c12.7 8.2 25.2 16.8 39 23 6.3 2.8 12.4 7.1 19.3 7.8 9.1.8 18.3.1 27.4.3 3.5 0 4.9-1.5 5.1-4.7.1-1.7.1-3.3.1-5 .3-31.8.5-63.6.8-95.4.4-54.6.9-109.3 1.4-163.9 0-2-.1-3.8-1.6-5.6-8.2-9.9-17.5-18.7-26.9-27.4-13.9-12.8-27-26.5-40.3-40-4.1-4.1-7.8-8.7-11.8-13.2-1.2 2-.9 3.5-.9 5-.1 55.1-.1 110.3-.3 165.4-.1 33.3-.6 66.6-.7 99.9 0 4.8-1.6 6.5-6.4 6.4-47.7-.3-95.3-.5-142.9-.6-3.8 0-7.6-1.1-11.4.7 10 11.3 22.8 18.9 34.5 28 22 17 45.3 32.5 68.5 48 4.2 2.8 8 2.3 12.3.9-.4-1.8-1.3-2.9-2.5-3.9-8.6-7.1-16.8-14.6-25.3-21.8-16.4-14.1-33.6-27.2-52.1-38.4-3-1.8-4.3-4.2-2.8-7.1 1.5-2.8 4.4-2.8 7-1.4 3.9 2.2 8 4.2 11.6 6.8 14.7 10.4 28.8 21.5 43.8 31.4 16.4 10.8 33.5 20.4 50.2 30.7 8 4.9 16.4 6.4 26.2 4.1-1.1-1-1.8-1.7-2.5-2.3-14.8-11.8-29.6-23.6-44.3-35.5-2.5-1.9-6.1-4.2-3.8-7.6 2.6-3.7 5.9-.6 8.8.8.1.1.3.2.4.3 6.5 4.6 13 9.3 20.1 14.3zM372.8 206.6c-10.5-20.2-20.9-40.5-31.7-60.6-1.8-3.5-3.1-8-7.3-9.7-1.7 1-1.6 2.3-1.7 3.4-.8 10.3-.8 20.6-.6 30.9.5 24.7-1.9 49.5 1.5 74.2.8 6.3 2.9 7.6 8.5 4.9 6.3-3.1 10.9-2.3 15.6 3 3.1 3.6 6.6 6.6 10.5 9.1 8.5 5.5 16.2 11.8 21.6 20.5 1.9 3.1 4.8 5.1 8.2 6.2 5.1 1.7 10.7-2.1 10.2-6.9-.6-5.8-2.3-11.4-4.9-16.6-9.8-19.3-19.7-38.5-29.9-58.4zM585.2 361.7c4.2-2.7 7.7-6.4 11.2-9.8 8.7-8.3 17.2-16.7 25.2-25.6 5-5.5 11.4-9.8 17.6-15.1.7 3.4-1 5.2-1.9 7.2-4 8.7-5.1 17.5-1.4 26.6 1.3 3.1 3.1 4.5 6.1 3 4.4-2.1 9.5-2.7 13.1-6.5 2.3-2.4 5-4.5 7.9-6 6.8-3.6 11.5-9.4 16.6-14.8 4.7-5 4.2-12.4 7.2-18.3 3-6.1 1.5-9.9-4.5-12.1-2.9-1.1-6-.3-8.9.5-4.1 1.2-8.3 1.5-12.3 1.2-1.1-2.1 2-2.7 1.1-4.7-7.9 0-15.7.1-23.5 0-2.6 0-4.4 1.4-6 3.1-8.1 8.6-16 17.3-24.3 25.7-9 9.2-17.9 18.7-26 28.7-10.8 13.3-21.3 26.8-31.7 40.4-2.2 2.9-5.2 5.5-6.5 9.5 2.8.3 4.8.5 6.8-1.5 6.3-6.2 12.5-12.4 19.3-18.1 4.9-4.2 8.5-9.8 14.9-13.4zM411.9 395.1c.2-7.8.6-15.6.4-23.4-.1-3.1 1.3-6.4-.8-9.2-3.4-4.8-6.4-9.6-10.9-13.6-11.9-10.3-25-19-37.7-28.3-3.8-2.9-7.9-5.3-11.6-8.5-6.2-5.6-13.2-10.4-21-16.4 0 4.1.2 6.7 0 9.2-.8 9.3.1 17.4 8.1 24.1 6.5 5.5 10.9 13.4 17.6 18.8 10.1 8 19.7 16.7 29.2 25.3 7.5 6.7 15.5 13 22.1 20.8.9 1.2 1.9 4 4.6 1.2zM480.3 713.2c-16.9-23.1-33.8-46.2-50.7-69.3-.5 .2-.9 .5-1.3.7-.3 5.2-.8 10 2.4 15.2 8.9 14.5 19.9 27.5 29 41.7 10.9 16.9 22.2 33.5 33.4 50.2 4.6 6.9 9.4 13.6 14.8 21.3 0-7.7 0-14.3 0-20.9 0-1.7-.6-3.1-1.7-4.5-8.5-11.3-17-22.6-25.9-34.4zM624.2 499.6c2.7-4 5.4-8 8-12 2.7-4.2 1.6-10.7-2.2-13.4-4.2-3-13.2-2.1-15.6 1.9-2 3.2-4.4 4.4-7.3 3.5-18.4 23.6-39.2 44.5-59 66.5 4 0 8.1 2.5 11.4-1 4.9-5.1 9.4-10.5 12.5-16.7 3.1-6.3 7.6-11.2 12.1-16.3 1.1-1.1 2.5-2.3 4-1.3 3.6 2.5 7.9 2 11.9 3 6.7 1.7 12-.8 15.2-7.2.9-1.7 1.6-4.3 4-3.7 2.8.6 3.4-1.3 5-3.3zM481.9 809.6c5.9 12.6 12 25.2 18.9 37.5 1.1-1.1 1.8-2.6 2.6-2.6 4.7-.5 4.4-3.8 4.3-7-.4-9.3 1.5-18.9-3.4-27.8-2.3-4.2-2.4-9.3-3.4-14-1.2-5.7-10.8-9.4-15.3-5.9-5.8 4.5-9.5 10.5-3.7 19.8zM432.2 629.4c9.2 11.9 17.1 24.8 26.7 36.5 12.4 14.9 23.7 30.7 35.6 46.1 4.1 5.2 8.5 10.3 12.7 15.4-.3-4.4 2.7-8.9 0-12.4-7.8-10.2-15.7-20.3-24-30-10.5-12.4-19.8-25.7-30.5-38-8.4-9.6-17-19-23.9-30.5-2.9 5.7.8 8.8 3.4 12.9zM412 343.3c-.1-1.2 0-2.4-1-3.3-9.1-8.3-16.3-18.4-24.9-27-13.4-13.5-26.5-27.1-38.7-41.6-5.3-6.2-10.7-12.3-15.6-19.6-1.5 11.2-1.5 11.4 5.1 18.7 3.3 3.7 6.5 7.6 9.7 11.3 19.1 21.7 40.5 41.2 60.4 62 1.2 1.3 2.3 3 4.7 2.6.1-.8 .2-1.6.3-3.1zM569.2 394.8c7-4.6 9.9-12.7 15.5-18.6-5.7 6.8-13.8 10.9-19.7 17.4 1.2 1.7 2.4 1.2 4.2 1.2zM148.2 624.2c-3.1-4.5-6.9-7.4-13.1-5.1 5.1 3.9 10.8 6.4 17.4 10.1-2-2.3-2.9-3.4-4.3-5z" fill="#29A7B5"/></g><defs></defs></svg>